<svg width="1024" height="1024" viewBox="0 0 1024 1024" fill="none" xmlns="http://www.w3.org/2000/svg">
<path d="M528.5 895.401L919.9 504.001C929.3 494.601 929.3 479.401 919.9 470.101C910.5 460.701 895.3 460.701 886 470.101L511.5 844.501L140 473.001C130.6 463.601 115.4 463.601 106.1 473.001C101.4 477.701 99.0996 483.801 99.0996 490.001C99.0996 496.201 101.4 502.301 106.1 507.001L494.6 895.501C503.9 904.801 519.1 904.801 528.5 895.401Z" fill="black"/>
<path d="M511.5 560.901C517.9 560.901 524 558.401 528.5 553.901L919.9 162.501C929.3 153.101 929.3 137.901 919.9 128.601C910.5 119.201 895.3 119.201 886 128.601L511.5 503.001L140 131.501C130.6 122.101 115.4 122.101 106.1 131.501C101.4 136.201 99.0996 142.301 99.0996 148.501C99.0996 154.701 101.4 160.801 106.1 165.501L494.6 554.001C499.1 558.401 505.2 560.901 511.5 560.901Z" fill="black"/>
</svg>
