<svg width="247" height="293" viewBox="0 0 247 293" fill="none" xmlns="http://www.w3.org/2000/svg">
<path d="M181.847 161.296L145 137.5" stroke="#000000" stroke-width="2"/>
<path d="M93.0593 111.509V95.4186C93.0593 73.629 75.3954 55.9651 53.6058 55.9651V55.9651C31.8163 55.9651 14.1523 73.629 14.1523 95.4186V236.922C14.1523 258.712 31.8163 276.376 53.6058 276.376V276.376C75.3954 276.376 93.0593 258.712 93.0593 236.922V163.085M93.0593 163.085L154.333 130.023M93.0593 163.085L54.7079 139.721M154.333 130.023V53.9814C154.333 32.4353 171.8 14.9688 193.346 14.9688V14.9688C214.892 14.9688 232.359 32.4353 232.359 53.9814V199.893C232.359 221.439 214.892 238.906 193.346 238.906V238.906C171.8 238.906 154.333 221.439 154.333 199.893V187.33M154.333 130.023L194.007 154.268" stroke="#000000" stroke-width="6"/>
<circle cx="147.734" cy="183.074" r="13.566" fill="#000000"/>
<circle cx="190.48" cy="156.769" r="13.566" fill="#000000"/>
<circle cx="96.7691" cy="110.738" r="13.566" fill="#000000"/>
<circle cx="54.0231" cy="130.464" r="13.566" fill="#000000"/>
<path d="M106.22 102.934V93.8914C106.22 64.8356 82.6659 41.2812 53.6102 41.2812V41.2812C24.5544 41.2812 1 64.8356 1 93.8914V239.391C1 268.447 24.5544 292.002 53.6102 292.002V292.002C82.6659 292.002 106.22 268.447 106.22 239.391V155.5" stroke="#000000" stroke-width="2"/>
<path d="M140.744 191.712V200.754C140.744 229.81 164.299 253.364 193.355 253.364V253.364C222.41 253.364 245.965 229.81 245.965 200.754V55.1331C245.965 26.0155 222.596 2.28729 193.482 1.8428V1.8428C163.314 1.38222 138.779 26.0333 139.382 56.1988L139.511 62.6525L140.744 124.305L93.0665 149.788L63.4733 130.881" stroke="#000000" stroke-width="2"/>
</svg>
